<svg xmlns="http://www.w3.org/2000/svg" viewBox="0 0 455.7 235.3" overflow="visible"><style>.st0{fill:#fff}</style><path class="st0" d="M174.2 71.4l-2.2-3.3c6-4 9.9-6.8 15.8-11.2 5.5-4.2 12.2-6.8 19.3-7.4 8-.8 16.1-1.3 24.2-1.5 1 0 1.9-.5 2.3-1.2 1.4-2.1 3.7-3.3 6.2-3.3h4.4c2.5 0 4.8 1.2 6.2 3.3.5.7 1.3 1.1 2.3 1.2 11.9.4 23.9 1.3 35.7 2.8l-.5 4c-11.6-1.5-23.5-2.4-35.3-2.8-2.3-.1-4.4-1.2-5.5-2.9-.6-1-1.7-1.5-2.9-1.5h-4.4c-1.2 0-2.2.6-2.9 1.5-1.2 1.8-3.3 2.9-5.5 2.9-8 .2-16 .7-23.9 1.5-6.4.6-12.4 2.9-17.3 6.7-6 4.3-9.9 7.1-16 11.2z"/><path class="st0" d="M230.2 119.9c-33 0-59.9-26.9-59.9-59.9s26.9-60 59.9-60 59.9 26.9 59.9 59.9-26.8 60-59.9 60zm0-115.9c-30.8 0-55.9 25.1-55.9 55.9s25.1 55.9 55.9 55.9c30.8 0 55.9-25.1 55.9-55.9S261.1 4 230.2 4z"/><path class="st0" d="M202.6 53l-3.9-.8.2-1.1c3.9-13.6 16.5-23.1 30.7-23.1 13.5 0 25.6 8.6 30.1 21.3l-3.8 1.3C252 39.5 241.4 32 229.6 32c-12.4 0-23.4 8.3-26.8 20.1l-.2.9zM177.4 84.1l-.3-4c5.8-.4 8.5-3 11.5-6 3.1-3.1 6.7-6.7 14-7.2s11.4 2.5 14.9 5.2c3.4 2.6 6.4 4.8 12.2 4.4 5.8-.4 8.5-3 11.5-6 3.1-3.1 6.7-6.7 14-7.2s11.4 2.5 14.9 5.2c3.4 2.6 6.4 4.8 12.2 4.4 1.3-.1 2.4-.3 3.5-.6l1.1 3.8c-1.3.4-2.8.6-4.3.7-7.3.5-11.4-2.5-14.9-5.2-3.4-2.6-6.4-4.8-12.2-4.4-5.8.4-8.5 3-11.5 6-3.1 3.1-6.7 6.7-14 7.2s-11.4-2.5-14.9-5.2c-3.4-2.6-6.4-4.8-12.2-4.4-5.8.4-8.5 3-11.5 6-3.1 3.2-6.7 6.7-14 7.3zM190.4 102.5l-2.3-3.3c1.4-1 2.6-2.2 3.9-3.5 3.1-3.1 6.7-6.7 14-7.2s11.4 2.5 14.9 5.1c3.4 2.6 6.4 4.8 12.2 4.4 5.8-.4 8.5-3 11.5-6 3.1-3.1 6.7-6.7 14-7.2s11.4 2.5 14.9 5.2c1.4 1 2.6 2 4.1 2.7l-1.9 3.5c-1.7-.9-3.2-2-4.6-3.1-3.4-2.6-6.4-4.8-12.2-4.4-5.8.4-8.5 3-11.5 6-3.1 3.1-6.7 6.7-14 7.2s-11.4-2.5-14.9-5.1c-3.4-2.6-6.4-4.8-12.2-4.4-5.8.4-8.5 3-11.5 6-1.3 1.5-2.7 2.9-4.4 4.1z"/><g><path class="st0" d="M81.7 134.6c0 1.2-1.3 1.7-5 2-1.5 1.4-2.6 3.9-4.4 9.3-5.2 15-10.3 29.4-12.9 36.1-1.1 2.7-1.7 4.4-4.2 4.4-2.2 0-3-1.4-4.3-4.3-2.3-5.6-6-15.6-9.3-25.1-4.1 10.7-8.1 20.3-10 25.1-1.1 2.7-1.7 4.4-4.1 4.4-2.2 0-3.1-1.4-4.4-4.3-3.2-7.2-9.6-24.5-14.4-38-2-5.9-2.7-7.1-3.5-7.5-3.8-.1-5.2-.6-5.2-1.9 0-1.9 3.6-2.7 10.9-2.7 7 0 10.4.8 10.4 2.6 0 1.5-1.4 1.9-5.9 2-.4 1.5.4 5.3 2.8 12.9 3.8 11.7 6.9 19.8 10.5 28.1 3.5-8.1 8-20.2 10.6-27.3-.8-2.2-1.4-4.2-2-6.1-2-6-2.5-7.1-3.2-7.6-3.3-.2-4.9-.6-4.9-1.9 0-1.9 3.6-2.7 10.7-2.7 7.7 0 11.1.8 11.1 2.6 0 1.4-1.4 1.9-6.8 2-.5 1.4.2 5.3 2.4 12.9 3.5 11.7 6.2 19 9.7 27.8 3.5-8.9 7.8-21.7 10-28.8 1.6-5.1 2.7-10.1 2.3-12-5.9-.1-7.4-.6-7.4-2 0-1.7 3.6-2.6 10.7-2.6 6.4.1 9.8.9 9.8 2.6zM82.8 183.6c0-1.4 1.6-1.7 4.7-1.9.8-.4.9-2.6.9-8.7v-9.9c0-3.8-.2-8.4-1-9.1-4.4-.2-5.3-.9-5.3-1.9 0-.7.5-1.2 1.4-1.7 2.4-1.1 7.7-2.3 9.5-2.3 1.9 0 2.3 1.2 2.3 3.4 0 2.6-.1 7.1-.1 12.9v8.7c0 5.4.2 8.2.8 8.7 3.2.2 4.8.5 4.8 1.9 0 1.8-3.5 2.4-9.1 2.4-5.7 0-8.9-.7-8.9-2.5zm3.7-46.9c0-2.9 2.5-4.4 5-4.4 2.7 0 4.5 1.7 4.5 4.4 0 3-2.5 4.4-5 4.4-2.7-.1-4.5-1.7-4.5-4.4zM148.8 183.6c0 1.8-3.4 2.4-9 2.4-6.3 0-9.6-.6-9.6-2.4 0-1.4 1.4-1.7 5.3-1.9.7-.4.8-4.1.8-8.7v-8.7c0-8.1-2.5-11.7-8.4-11.7-5.3 0-11.2 4-11.2 14.4v5.9c0 5.4.2 8.3.8 8.7 3.9.2 5.3.5 5.3 1.9 0 1.9-3.5 2.4-9.6 2.4-5.8 0-9-.7-9-2.4 0-1.4 1.5-1.7 4.7-1.9.8-.4.9-2.4.9-8.7V163c0-3.7-.2-8.4-.9-9-4.4-.2-5.4-.9-5.4-1.9 0-.8.5-1.3 1.4-1.7 2.6-1.3 7.8-2.4 9.6-2.4 1.7 0 2.3 1.2 2.3 3.4 0 1.4-.1 3.1-.1 5.3 2.6-6 7.8-9.2 14-9.2 6.5 0 12.3 3.8 12.3 14.3v11.1c0 6.4.1 8.2.8 8.7 3.4.3 5 .7 5 2zM194.7 182.2c0 .8-.4 1.3-1.4 1.7-2.6 1.3-7.5 2.4-9.3 2.4-1.8 0-2.3-1.3-2.3-3.4 0-1.3 0-3.1.1-5.5-2.3 5.5-7.6 9.3-14.1 9.3-9 0-15.7-7.8-15.7-19 0-11.9 7.1-20.2 17.7-20.2 5.3 0 9.3 2.2 11.9 5.4v-7.3c0-3.6-.4-8.4-1.3-9-4.7-.2-5.9-1-5.9-2 0-.8.4-1.2 1.5-1.7 2.7-1.2 8.3-2.3 10.3-2.3 1.7 0 2.3 1.1 2.3 3.4 0 2.6-.2 6.9-.2 12.7v24.6c0 4.1.2 8.4 1 9 4.4.2 5.4.9 5.4 1.9zm-13-16.4c-.2-10.4-5-14.6-11-14.6-7.5 0-11.6 6.5-11.6 15.7 0 9.6 4.7 15.1 10.9 15.1 5.9.1 11.8-4.8 11.7-16.2zM235.6 150.8c0 1.4-1.4 1.7-4.1 1.9-1.1.8-1.7 2.1-2.9 5.3-3.6 10.2-5.6 16.3-8.9 24.9-4.1 10.8-7 17.2-14.4 17.2-4.3 0-7.2-2.7-7.2-6 0-2.7 2-4.7 4.4-4.7s3.9 1.7 4 4c.1.7 0 1.3 0 1.7.1.5.4.9 1 .9 2.1 0 3.7-2.3 5-5.9.7-1.9.5-3.4-1.5-7.8-2.8-5.9-7.9-17.9-10.7-25.1-1.2-3.1-1.7-4.1-2.3-4.5-2.7-.2-4.2-.6-4.2-1.9 0-1.7 3.2-2.6 9.3-2.6s9 .8 9 2.6c0 1.3-1.6 1.7-5.1 1.8-.3.9.5 4.3 1.7 7.6 2.2 6.2 5.9 14.3 8.3 19.2 2.3-5.9 5.4-14.8 6.8-19.9.7-2.3 1.6-5.9 1.2-7-3.8-.2-5.3-.5-5.3-1.8 0-1.7 3.4-2.6 8.5-2.6 4.6.2 7.4 1.1 7.4 2.7zM295.2 170.6c0 10.1-8.8 16.3-19.3 16.3-5.9 0-10.9-2-14.1-4.3.1.3.1.6.1 1 0 1.5-.7 2.6-1.8 2.6-2.9 0-5.8-8.6-5.8-15.3 0-3.3 1-4.7 2.3-4.7 1.6 0 2 2.7 3.5 6.5 2.2 5.6 8.3 9.7 15.8 9.7s12.7-4.4 12.7-10.5c0-6.6-6-8.4-14.2-9.9-11.7-2.1-19-4.9-19-15.5 0-8.4 7.7-15.4 18.6-15.4 5.3 0 9.5 1.6 12.4 3.7-.1-.4-.1-.7-.1-1.1 0-1.1.5-2.3 1.7-2.3 2.9 0 5.4 8.1 5.4 14.1 0 2.6-1 4.1-2.1 4.1-1.4 0-2-1.7-2.6-3.4-2-6.9-6.9-10.7-14.2-10.7-7.4 0-12.3 4.1-12.3 9.8 0 6.8 5.6 8.1 13.8 9.6 11.4 2.3 19.2 5.6 19.2 15.7zM343.8 183.6c0 1.8-3.5 2.4-9 2.4-6.2 0-9.6-.6-9.6-2.4 0-1.4 1.4-1.7 5.3-1.9.7-.4.9-4.1.9-8.7v-8.7c0-8.1-2.6-11.7-8.4-11.7-5.3 0-11.2 4-11.2 14.4v6.1c0 5.3.2 8.2.8 8.7 3.9.2 5.4.5 5.4 1.9 0 1.9-3.5 2.4-9.6 2.4-5.8 0-9-.7-9-2.4 0-1.4 1.6-1.7 4.8-1.9.7-.4.8-2.4.8-8.7v-27.8c0-3.8-.2-8.1-1-8.7-4.5-.2-5.6-.9-5.6-1.9 0-.7.4-1.2 1.4-1.7 2.7-1.3 8.1-2.3 9.8-2.3 1.8 0 2.3 1.2 2.3 3.4 0 2.6-.2 6.7-.2 12.5v10.5c2.5-6.1 7.9-9.3 14.1-9.3 6.5 0 12.3 3.8 12.3 14.3v11.2c0 5.7-.1 8.1.8 8.7 3.3 0 4.9.3 4.9 1.6zM346.9 167.4c0-11.7 8.4-19.9 20.2-19.9 11.1 0 19.1 8.2 19.1 19.5 0 12-8.9 19.9-20.2 19.9-11.3 0-19.1-8.2-19.1-19.5zm32.3 2.3c0-9.4-5.8-18.5-14.2-18.5-6.4 0-11.3 5.3-11.3 13.5 0 9.4 5.6 18.4 14.2 18.4 6.5 0 11.3-5.3 11.3-13.4zM419.9 152.8c0 2.9-1.7 4.5-3.8 4.5-1.5 0-2.5-.8-3.2-1.6-.6-.7-1.1-1.4-2.4-1.4-2.8 0-7.5 4.2-7.5 12.2v6.6c0 5.3.3 8.2 1 8.6 4.7.2 6.3.6 6.3 2 0 1.8-3.6 2.4-10.6 2.4-5.9 0-9.1-.7-9.1-2.4 0-1.4 1.6-1.7 4.7-1.9.8-.4.9-2.4.9-8.7v-9.9c0-3.7-.2-8.4-.9-9-4.4-.2-5.3-.9-5.3-1.9 0-.8.4-1.3 1.4-1.7 2.4-1.2 7.7-2.4 9.5-2.4 1.8 0 2.3 1.2 2.3 3.4 0 1.4-.1 3.5-.1 5.9 2.6-6.5 7.8-9.8 11.5-9.8 2.8 0 5.3 1.8 5.3 5.1zM455.7 175.7c0 1.2-.9 3.1-2.5 5-2.6 3.1-7.5 6.2-14.1 6.2-10.4 0-17.4-7.8-17.4-18.9 0-12.1 8.4-20.5 18.7-20.5 9.2 0 15.1 6.5 15.1 13.1 0 3.2-1.5 5.3-4.2 5.3h-23.1c.2 8.7 5 14.8 13.1 14.8 5.6 0 9-2.9 11.1-5.3.8-.8 1.2-1.3 2-1.3.8.1 1.3.7 1.3 1.6zm-27.3-13.4l17.5-.2c2.1 0 3.2-.8 3.2-2.9 0-4.1-3.5-8.1-9.3-8.1-6 0-10.3 4.5-11.4 11.2z"/></g><g><path class="st0" d="M171.2 229.2v-5.9c0-3.6 2.4-6.1 5.9-6.1 3.5 0 5.9 2.6 5.9 6.2v.1h-1.5v-.1c0-2.7-1.6-4.8-4.4-4.8-2.5 0-4.4 1.7-4.4 4.6v6c0 2.5 1.6 4.7 4.4 4.7s4.4-2.2 4.4-4.8v-.2h1.5v.2c0 3.7-2.3 6.2-5.9 6.2-3.5 0-5.9-2.5-5.9-6.1zM195.1 235.1v-17.6h5.1c3.5 0 5.9 2.1 5.9 5.8v.7c0 3.1-1.9 4.9-4.6 5.3l4.5 5.8h-1.8l-4.3-5.6h-3.4v5.6h-1.4zm1.5-7h3.5c2.6 0 4.5-1.3 4.5-4.2v-.7c0-3-1.9-4.3-4.5-4.3h-3.5v9.2zM216.6 235.1l6.2-17.6h1.7l6.1 17.6h-1.5l-1.5-4.5h-7.9l-1.6 4.5h-1.5zm3.5-5.8h7.1l-3.5-10.2-3.6 10.2zM242 235.1v-17.6h9.4v1.5h-7.9v6.6h5.5v1.3h-5.5v8.2H242zM266.9 235.1v-16.2H262v-1.5h11.2v1.5h-4.9v16.2h-1.4zM283.7 229.4h1.4c0 3.3 2 4.5 4.4 4.5 2.4 0 4.3-1.1 4.3-3.5s-2.1-2.9-4.4-3.5c-2.6-.7-5.5-1.3-5.5-5 0-3.2 2.4-4.8 5.6-4.8 3.1 0 5.6 1.7 5.6 5.6h-1.5c0-3-1.9-4.2-4.2-4.2-2.3 0-4.1 1-4.1 3.3 0 2.6 2.2 3.1 4.6 3.7 2.6.6 5.3 1.3 5.3 4.7 0 3.3-2.5 4.9-5.8 4.9-3.1.2-5.7-1.6-5.7-5.7z"/><g><path class="st0" d="M320.2 228.7h-15.3c-1.1 0-2-.9-2-2s.9-2 2-2h15.3c1.1 0 2 .9 2 2s-.9 2-2 2z"/></g><g><path class="st0" d="M160.7 228.7h-15.3c-1.1 0-2-.9-2-2s.9-2 2-2h15.3c1.1 0 2 .9 2 2s-.9 2-2 2z"/></g></g></svg>